# xmcd
#
# Track frame offsets: 
#        150
#        4575
#        24645
#        47022
#        62335
#        78735
#        97115
#        131557
#        141627
#        166337
#        173147
#        199055
#        213285
#        232357
#        236300
#        252512
#        274257
#        295625
#
# Disc length: 4145 seconds
#
# Revision: 0
# Processed by: cddbd v1.5.2PL0 Copyright (c) Steve Scherf et al.
# Submitted via: ExactAudioCopy v0.95b4
#
DISCID=08102f12
DTITLE=Raheem DeVaughn - Love Behind The Melody
DYEAR=2008
DGENRE=R&B
TTITLE0=Hello Love...
TTITLE1=Woman
TTITLE2=Love Drug
TTITLE3=Energy (feat. Big Boi)
TTITLE4=Friday (Shut The Club Down)
TTITLE5=Customer
TTITLE6=Mo Better
TTITLE7=Woman I Desire (feat. Malik Yusef)
TTITLE8=Desire
TTITLE9=Midnight
TTITLE10=Marathon (feat. Floetry)
TTITLE11=Butterflies
TTITLE12=She's Not You
TTITLE13=Can We Try Again?
TTITLE14=Try Again
TTITLE15=Empty
TTITLE16=Four Letter Word
TTITLE17=Some Kind Of Way
EXTD=
EXTT0=
EXTT1=
EXTT2=
EXTT3=
EXTT4=
EXTT5=
EXTT6=
EXTT7=
EXTT8=
EXTT9=
EXTT10=
EXTT11=
EXTT12=
EXTT13=
EXTT14=
EXTT15=
EXTT16=
EXTT17=
PLAYORDER=
